<svg xmlns="http://www.w3.org/2000/svg" viewBox="0 0 32 32" fill="none">
  <defs>
    <linearGradient id="g" x1="0%" y1="0%" x2="0%" y2="100%">
      <stop offset="50%" style="stop-color:#60a5fa"/>
      <stop offset="100%" style="stop-color:#3b82f6;stop-opacity:0.3"/>
    </linearGradient>
  </defs>
  <path d="M16 2C10.5 2 6 6.5 6 12v10.5c0 .8.7 1.5 1.5 1.5H10c0-2 1.3-3.5 2.5-3.5S15 22 15 24h2c0-2 1.3-3.5 2.5-3.5S22 22 22 24h2.5c.8 0 1.5-.7 1.5-1.5V12c0-5.5-4.5-10-10-10z" fill="url(#g)"/>
  <circle cx="12.5" cy="13.5" r="2.2" fill="#06060b"/>
  <circle cx="19.5" cy="13.5" r="2.2" fill="#06060b"/>
  <circle cx="13" cy="13" r="0.8" fill="#fff"/>
  <circle cx="20" cy="13" r="0.8" fill="#fff"/>
</svg>
